<?xml version="1.0" encoding="utf-8"?>
<!-- Generator: Adobe Illustrator 25.2.3, SVG Export Plug-In . SVG Version: 6.00 Build 0)  -->
<svg version="1.1" id="Layer_1" xmlns="http://www.w3.org/2000/svg" xmlns:xlink="http://www.w3.org/1999/xlink" x="0px" y="0px"
	 viewBox="0 0 203.1 46" style="enable-background:new 0 0 203.1 46;" xml:space="preserve">
<style type="text/css">
	.st0{fill-rule:evenodd;clip-rule:evenodd;fill:#003557;}
	.st1{fill-rule:evenodd;clip-rule:evenodd;fill:#4A91E9;}
	.st2{fill-rule:evenodd;clip-rule:evenodd;fill:url(#SVGID_1_);}
	.st3{fill-rule:evenodd;clip-rule:evenodd;fill:url(#SVGID_2_);}
</style>
<path class="st0" d="M118.7,24.1h3.6c2.6,0,4.4-1.5,4.4-3.7c0-2-1.8-3.4-4.4-3.4h-3.6V24.1z M114.1,34V13.1h8.8c5.1,0,8.6,3,8.6,7.3
	c0,4.5-3.5,7.6-8.8,7.6h-3.9v6H114.1z M96.7,17v5.8h4c2.8,0,4.5-1.1,4.5-2.9c0-1.8-1.6-2.9-4.2-2.9H96.7z M111.4,34h-5.6l-5.2-7.3
	h-3.9V34h-4.7V13.1h9.3c5.2,0,8.5,2.7,8.5,6.8c0,2.8-1.6,4.9-4.3,6L111.4,34z M58.4,34h4.9l3.8-13.7h0.1L71.8,34h4.4l4.6-13.8h0.1
	L84.7,34h4.9l-5.7-20.9h-5.1l-4.8,14.2h-0.1l-4.7-14.2h-5.1L58.4,34z"/>
<polygon class="st1" points="199.9,19.5 202.7,19.5 192.8,40.4 190,40.4 193,34.1 185.4,19.5 188.2,19.5 194.3,31.4 194.4,31.4 "/>
<path class="st1" d="M178.7,34c-4.1,0-6.7-1.9-6.9-4.8h2.4c0.3,1.8,2.1,2.9,4.6,2.9c2.2,0,3.6-0.9,3.6-2.2c0-3.9-10.1-0.7-10.1-6.5
	c0-2.5,2.4-4.2,6-4.2c3.4,0,6.2,1.6,6.4,4.5h-2.4c-0.2-1.6-2.1-2.6-4.1-2.6c-1.9,0-3.4,0.8-3.4,2.1c0,3.8,10,0.5,10,6.6
	C185,32.3,182.4,34,178.7,34z"/>
<path class="st1" d="M160.7,31.9c2.9,0,5-2.3,5-5.3c0-3.1-2.2-5.4-5-5.4c-2.9,0-5.1,2.3-5.1,5.4C155.5,29.6,157.8,31.9,160.7,31.9z
	 M160.3,34c-4.2,0-7.4-3.2-7.4-7.5c0-4.3,3.2-7.5,7.4-7.5c2,0,4,0.9,5.3,2.8h0.1v-2.4h2.6v14.1h-2.6v-2.4h-0.1
	C164.4,33.1,162.4,34,160.3,34z"/>
<path class="st1" d="M137.8,25.7h9.8c-0.1-2.5-1.8-4.6-4.7-4.6C140.2,21.1,138.1,23,137.8,25.7z M143.1,34c-4.6,0-7.8-3-7.8-7.5
	c0-4.5,3.1-7.5,7.6-7.5c4.4,0,7.4,3,7.4,7.6v0.9h-12.4c0.4,2.6,2.5,4.4,5.2,4.4c1.7,0,3.3-0.7,4-1.9h2.8
	C148.9,32.5,146.2,34,143.1,34z"/>
<radialGradient id="SVGID_1_" cx="45.5" cy="0.5" r="64.4647" gradientUnits="userSpaceOnUse">
	<stop  offset="0" style="stop-color:#5A7DED"/>
	<stop  offset="0.3459" style="stop-color:#4697E8"/>
	<stop  offset="0.7522" style="stop-color:#34B0E3"/>
	<stop  offset="1" style="stop-color:#2DB9E1"/>
</radialGradient>
<path class="st2" d="M46,0v36c0,5.5-4.5,10-10,10H0L46,0z"/>
<radialGradient id="SVGID_2_" cx="46" cy="0.1667" r="64.8181" gradientUnits="userSpaceOnUse">
	<stop  offset="0" style="stop-color:#321664"/>
	<stop  offset="0.2664" style="stop-color:#2D1963"/>
	<stop  offset="0.5781" style="stop-color:#1F225F"/>
	<stop  offset="0.9112" style="stop-color:#083059"/>
	<stop  offset="1" style="stop-color:#003557"/>
</radialGradient>
<path class="st3" d="M10,0C4.5,0,0,4.5,0,10v36L46,0H10z"/>
</svg>
